<mxfile host="app.diagrams.net" modified="2023-09-19T11:33:13.278Z" agent="Mozilla/5.0 (Windows NT 10.0; Win64; x64) AppleWebKit/537.36 (KHTML, like Gecko) Chrome/117.0.0.0 Safari/537.36" version="21.7.5" etag="i2j2X9rSAKTRA6tLh8YT" type="github">
  <diagram name="第 1 页" id="ACrgACmNb9M1VvyoO8mn">
    <mxGraphModel>
      <root>
        <mxCell id="0" />
        <mxCell id="1" parent="0" />
      </root>
    </mxGraphModel>
  </diagram>
</mxfile>
